<?xml version="1.0" standalone="no"?>
<!DOCTYPE svg PUBLIC "-//W3C//DTD SVG 20010904//EN"
 "http://www.w3.org/TR/2001/REC-SVG-20010904/DTD/svg10.dtd">
<svg version="1.0" xmlns="http://www.w3.org/2000/svg"
 width="390.000000pt" height="390.000000pt" viewBox="0 0 390.000000 390.000000"
 preserveAspectRatio="xMidYMid meet">
<metadata>
Created by potrace 1.14, written by Peter Selinger 2001-2017
</metadata>
<g transform="translate(0.000000,390.000000) scale(0.100000,-0.100000)"
fill="#000000" stroke="none">
<path d="M1798 3755 c-3 -2 -74 -12 -149 -20 -15 -2 -39 -6 -55 -9 -16 -4 -38
-8 -49 -10 -56 -11 -151 -39 -162 -48 -7 -5 -16 -7 -22 -4 -5 3 -11 1 -13 -5
-2 -7 -13 -13 -24 -14 -25 -3 -44 -10 -134 -53 -41 -20 -78 -35 -83 -34 -4 1
-29 -14 -56 -33 -28 -19 -61 -37 -75 -41 -14 -3 -26 -12 -26 -20 0 -7 -11 -16
-24 -20 -14 -3 -32 -14 -42 -25 -9 -10 -21 -19 -27 -19 -5 0 -22 -13 -37 -30
-15 -16 -32 -30 -38 -30 -5 0 -13 -7 -16 -16 -3 -8 -9 -13 -14 -10 -4 2 -33
-21 -65 -52 -31 -31 -63 -62 -69 -69 -7 -6 -31 -32 -53 -59 -22 -26 -48 -55
-57 -65 -10 -11 -18 -23 -18 -28 0 -5 -7 -11 -15 -15 -8 -3 -15 -12 -15 -19 0
-8 -7 -21 -16 -28 -9 -7 -20 -22 -25 -34 -5 -11 -27 -49 -49 -84 -22 -34 -40
-65 -40 -68 0 -3 -9 -18 -21 -34 -11 -16 -18 -29 -14 -29 3 0 -1 -10 -9 -22
-9 -12 -16 -30 -16 -38 0 -9 -5 -21 -12 -28 -10 -10 -34 -66 -43 -102 -2 -8
-4 -15 -5 -15 -1 0 -3 -8 -5 -18 -2 -10 -7 -26 -11 -35 -9 -22 -12 -30 -19
-66 -3 -16 -8 -34 -11 -38 -3 -5 -8 -21 -10 -36 -3 -15 -13 -74 -24 -132 -22
-126 -24 -406 -4 -533 8 -45 16 -96 18 -113 2 -16 14 -63 26 -104 12 -41 24
-86 27 -100 2 -14 8 -29 14 -34 5 -6 9 -16 9 -24 0 -23 135 -308 157 -330 7
-7 20 -28 29 -47 9 -19 20 -35 25 -35 5 0 9 -5 9 -11 0 -6 6 -17 12 -24 29
-32 38 -45 38 -52 0 -8 54 -68 158 -175 30 -32 61 -58 69 -58 7 0 13 -7 13
-15 0 -9 11 -21 25 -27 14 -6 25 -15 25 -20 0 -4 7 -8 16 -8 8 0 12 -5 9 -10
-3 -6 -1 -10 5 -10 12 0 47 -24 108 -76 20 -18 40 -31 44 -30 4 0 16 -6 26
-14 10 -8 25 -16 33 -18 8 -2 16 -8 17 -13 2 -5 10 -9 18 -9 8 0 14 -5 14 -11
0 -5 4 -8 9 -4 5 3 26 -6 47 -20 20 -14 45 -25 55 -25 11 0 19 -4 19 -9 0 -4
21 -14 48 -21 26 -7 51 -17 56 -21 6 -5 16 -9 23 -9 7 0 33 -9 57 -21 25 -11
57 -22 73 -23 15 -2 35 -5 43 -8 23 -8 111 -28 150 -34 19 -3 49 -7 65 -10 56
-10 340 -12 410 -4 103 12 147 19 173 25 50 12 69 16 102 21 19 3 41 11 48 16
7 6 15 9 17 6 3 -3 36 6 73 19 37 13 72 25 78 27 7 1 18 7 25 12 8 6 36 17 63
25 27 8 51 20 53 27 3 6 12 12 20 12 8 0 27 9 43 20 15 11 30 17 34 13 3 -3 6
-1 6 5 0 7 4 12 9 12 4 0 42 23 82 50 41 28 92 63 114 78 22 14 52 39 68 54
15 15 29 28 32 28 7 0 37 27 82 74 21 21 57 59 81 83 23 24 42 46 42 49 0 2
11 16 25 30 14 14 25 29 25 34 0 5 6 15 13 22 19 19 102 148 128 199 13 24 26
46 29 49 5 4 31 56 35 70 4 13 18 48 30 75 14 32 39 96 41 105 0 3 8 30 18 61
9 31 18 65 20 75 3 11 11 51 20 89 26 119 28 144 31 345 3 156 0 216 -15 300
-24 131 -51 252 -60 265 -4 6 -11 24 -15 40 -10 37 -9 34 -23 68 -7 16 -12 30
-12 33 0 9 -102 218 -119 243 -10 14 -42 62 -71 106 -58 87 -158 212 -205 255
-61 57 -100 90 -107 90 -5 0 -8 7 -8 15 0 8 -11 17 -25 21 -14 3 -25 13 -25
20 0 8 -12 19 -27 25 -15 6 -30 14 -33 18 -3 4 -22 17 -42 30 -21 12 -38 27
-38 32 0 5 -6 9 -13 9 -6 0 -34 16 -61 35 -27 19 -64 39 -82 45 -19 7 -34 16
-34 22 0 5 -6 8 -12 6 -7 -3 -37 8 -65 24 -29 16 -53 26 -53 22 0 -4 -10 1
-22 12 -13 12 -18 13 -13 4 6 -10 2 -10 -12 3 -11 10 -24 17 -29 16 -5 -1 -17
1 -26 4 -10 4 -26 10 -35 14 -10 3 -21 7 -25 7 -3 1 -9 4 -13 8 -4 4 -13 4
-21 1 -8 -3 -20 -1 -27 5 -12 9 -44 17 -125 28 -52 7 -63 9 -82 17 -8 3 -22 6
-30 6 -51 4 -379 9 -382 6z"/>
</g>
</svg>
